<svg width="428" height="6" viewBox="0 0 428 6" fill="none" xmlns="http://www.w3.org/2000/svg">
<g filter="url(#filter0_n_2169_109)">
<path d="M0.0213703 0.294605C2.85718 0.0350677 5.68891 -0.0720664 8.60504 0.0506752C9.26952 0.0784434 9.20642 0.284013 9.47954 0.317925C9.98151 0.380549 10.8247 0.16054 10.9428 0.160816C11.6759 0.1597 11.3886 0.519095 11.4873 0.533193C12.587 0.681947 12.2713 0.271081 13.3231 0.234129C14.6928 0.185909 16.4501 0.263379 18.1003 0.287406C18.6798 0.296824 18.4211 0.570335 19.6719 0.55018C20.558 0.536118 23.2768 0.230047 24.5276 0.566713C24.5346 0.692752 24.3762 0.83152 24.3095 0.961419C26.1048 0.440369 26.7468 0.464914 29.2901 0.598898C29.6924 0.620004 30.074 0.405105 30.7826 0.486415C31.491 0.567791 31.5201 0.900509 32.945 0.899805C33.4504 0.898757 33.7576 0.664887 34.5325 0.65662C36.7367 0.632541 40.9337 0.933718 42.7427 0.948028C46.3052 0.976504 48.2445 0.580667 51.4079 0.727177C51.6516 0.737829 51.1158 0.993668 51.5624 0.999763C52.0128 1.00586 52.4827 0.666341 52.5935 0.658534C53.7896 0.573656 56.316 1.03587 56.9814 0.982211C58.5988 0.850879 57.0056 0.697056 59.2467 0.637762C61.3808 0.581341 64.3259 1.03169 66.4409 1.12334C68.8919 1.22982 69.6838 0.587506 71.5281 1.26431C78.0108 1.24014 84.5195 1.23129 91.0096 1.21217C90.9908 1.34619 90.9691 1.48025 90.9466 1.61426C91.46 1.5227 91.9735 1.431 92.4869 1.34044C92.4091 1.44006 92.3353 1.53978 92.2576 1.63838C94.6688 1.25895 96.8176 1.06532 99.6336 1.17769C99.6886 1.17983 99.5433 1.44679 99.5889 1.45378C100.224 1.50568 100.934 1.30171 101.491 1.35141C102.838 1.47051 105.126 2.05871 104.12 1.34352C107.261 1.49804 110.953 1.26566 113.947 1.41073C115.242 1.47323 115.629 1.89659 116.249 1.92241C116.869 1.94803 116.554 1.58428 116.774 1.57084C118.096 1.49327 120.271 1.51333 120.499 1.92013C120.765 1.75847 121.047 1.59488 121.317 1.43222C121.158 1.88231 125.242 1.70566 126.314 1.71917C126.51 1.72165 126.536 1.91916 126.684 1.91749C128.33 1.89605 128.733 1.5875 130.143 1.48794C130.638 1.4528 129.87 1.79898 131.14 1.65171C131.251 1.63877 131.193 1.32602 132.71 1.33158C135.132 1.34025 139.765 1.22709 142.648 1.38806C142.884 1.40071 142.164 1.73981 143.245 1.6629C143.637 1.63559 143.45 1.39317 144.398 1.39337C148.076 1.39189 151.996 1.67925 155.747 1.45712C155.61 1.73004 154.273 2.03341 156.282 1.86671C156.603 1.83916 156.364 1.59459 156.508 1.58585C157.674 1.51807 158.685 1.69473 159.948 1.60396C160.321 1.5766 160.414 1.38522 160.879 1.34093C161.566 1.27502 161.869 1.54892 162.667 1.43483C163.914 1.25526 164.107 0.996739 165.653 1.50834C174.417 1.49655 183.141 1.37391 191.875 1.61813C194.401 1.47885 196.731 1.32208 199.364 1.27276C200.139 1.25844 200.286 1.60556 201.523 1.49358C201.8 1.46902 203.777 1.10145 204.063 1.80286C204.613 1.74369 204.96 1.74246 205.433 1.70627C205.075 1.60259 204.706 1.49775 204.363 1.39309C206.356 1.50966 207.984 1.26643 209.749 1.15359C211.049 1.07098 210.126 1.36932 210.923 1.34097C211.72 1.3136 212.083 1.24683 213.079 1.60908C213.863 1.19568 214.382 1.48812 215.826 1.50258C215.981 1.50394 216.877 1.34501 217.627 1.37891C218.165 1.40336 218.325 1.66268 219.18 1.62456C219.321 1.61883 221.131 1.30221 221.707 1.27431C222.604 1.23002 224.029 1.56532 224.203 1.56976C226.724 1.63407 227.696 1.30862 229.485 1.85219C229.848 1.53248 231.343 1.34835 232.55 1.38235C234.074 1.42523 237.13 2.08782 237.549 1.39616C239.313 1.70878 239.121 1.51793 241.214 1.51673C243.119 1.51513 248.161 1.79186 249.705 1.75722C251.248 1.72352 250.497 1.33654 251.11 1.28655C252.114 1.2034 251.571 1.48636 252.258 1.48394C254.199 1.47637 255.887 1.42599 257.741 1.30631C257.84 1.50611 257.947 1.70692 258.049 1.90672C258.146 1.84044 258.241 1.77408 258.337 1.7078C258.736 1.71075 259.183 1.7077 259.552 1.71461C256.439 0.831288 262.561 1.78644 264.399 1.81291C265.95 1.83468 268.532 1.42523 270.234 1.33947C270.647 1.31836 270.363 1.53334 270.447 1.52857C271.444 1.4694 271.596 1.32249 272.936 1.34578C273.645 1.35854 274.368 1.63027 275.058 1.637C280.127 1.68514 285.019 1.42524 290.055 1.40775C290.911 1.40471 291.649 1.73609 292.369 1.7449C293.399 1.75738 294.049 1.48899 295.016 1.4871C295.98 1.48531 297.368 1.81113 298.022 1.76329C298.675 1.71642 297.558 1.40123 298.754 1.48972C299.303 1.53039 298.332 1.7609 299.011 1.76957C301.13 1.7967 304.121 1.51541 306.376 1.7999C306.276 1.73012 306.141 1.66721 306.019 1.60039C308.422 1.63324 310.545 1.80559 313.026 1.83558C313.893 1.8466 315.459 1.6459 316.311 1.64885C317.164 1.65185 317.551 1.8745 318.234 1.88224C318.515 1.88592 318.405 1.68695 318.594 1.69142C320.949 1.7494 322.24 2.10614 324.706 2.07162C333.74 1.94552 343.056 1.84016 352.231 1.7285C352.599 1.7241 352.848 1.46581 353.387 1.42877C354.217 1.37143 354.257 1.60036 354.368 1.60868C355.091 1.66073 354.797 1.44824 355.768 1.45051C357.905 1.4555 361.353 1.6512 363.483 1.64005C368.394 1.61421 372.522 1.42211 377.336 1.33152C377.683 1.32426 377.447 1.63019 378.049 1.63562C382.29 1.67776 383.188 1.38643 388.467 1.48143C393.747 1.57645 403.711 1.78538 409.891 1.84217C409.891 1.84288 409.891 1.84359 409.891 1.8443C411.837 1.28225 414.354 1.42906 416.443 1.86236C404.389 3.23168 392.861 2.58282 379.991 2.60821C366.464 2.63409 352.041 3.61579 338.334 3.44566C337.045 3.42955 336.529 3.10563 335.443 3.17065C335.259 3.18165 335.734 3.43145 335.17 3.45536C327.416 3.77602 319.151 3.18988 311.538 3.32934C309.486 3.36689 309.163 3.64344 307.358 3.71082C307.675 3.58053 307.883 3.444 308.16 3.3126C299.921 2.88399 291.668 3.0472 283.321 2.96922C282.945 2.96525 282.897 2.69388 282.502 2.68287C281.712 2.6599 280.955 2.95658 280.265 2.96513C279.364 2.97613 279.208 2.75994 278.378 2.77212C277.972 2.77839 278.093 2.98609 277.212 2.94884C277.138 2.94564 277.09 2.72792 276.504 2.75461C274.897 2.82849 271.615 3.00337 270.285 3.05473C268.587 3.12032 267.226 2.78933 266.583 2.76653C264.848 2.70502 264.884 3.04077 263.415 3.03746C252.96 3.01505 242.965 2.60975 232.263 2.58777C231.59 2.58635 229.103 2.95426 227.858 2.93638C227.441 2.92935 225.261 2.82555 224.935 2.81663C223.609 2.78227 222.464 2.55367 221.734 2.50457C220.316 2.40858 218.731 2.75769 217.96 2.79117C216.605 2.85049 214.199 2.79849 213.63 2.78808C212.256 2.76269 212.711 2.32733 211.725 2.42686C211.434 2.45661 211.738 2.7919 210.712 2.7895C209.852 2.78635 209.505 2.53357 208.919 2.48684C208.332 2.44037 207.254 2.82751 206.888 2.81688C204.976 2.75797 204.13 2.50066 202.048 2.48269C200.319 2.46861 192.327 2.62855 191.662 2.71874C188.685 3.12176 193.642 2.94941 193.921 2.9639C195.431 3.04708 195.21 3.20386 196.716 2.90695C198.062 3.83669 202.762 2.40495 203.963 3.50678C205.208 2.77768 206.253 3.14916 207.563 3.29943C209.374 3.50712 207.996 3.07732 209.317 3.07739C209.838 3.07781 211.347 3.41384 212.13 3.36931C212.912 3.32466 213.242 3.07046 214.29 3.05879C216.162 3.03699 217.668 3.15951 219.24 3.46862C219.528 3.33422 219.797 3.19971 220.082 3.0653C221.167 3.21303 222.256 3.35987 223.341 3.50659C223.168 3.38821 222.994 3.26882 222.821 3.15044C223.139 3.13404 223.457 3.11862 223.775 3.10323C224.83 3.28314 225.838 3.44978 226.923 3.63581C229.874 2.96031 229.016 3.54893 230.655 3.64148C232.294 3.73394 233.243 3.34111 234.509 3.34194C236.215 3.3429 236.998 3.29542 238.718 3.32767C239.715 3.34613 241.405 3.73127 240.018 3.12409C243.131 3.08297 247.392 2.92438 250.175 3.1759C250.997 3.24931 249.901 3.43696 250.041 3.46094C250.738 3.57446 251.326 3.26747 252.046 3.31333C253.242 3.38972 255.571 3.63525 256.512 3.69396C257.867 3.77879 259.998 3.38435 260.216 3.35562C261.434 3.19621 261.759 3.52859 262.15 3.50662C264.377 3.37874 264.868 3.24061 265.568 3.94187C266.145 3.64073 268.561 3.13739 269.143 3.64778C269.159 3.18812 271.163 3.2703 272.396 3.15824C272.625 3.29187 272.857 3.4247 273.086 3.55934C275.661 2.74262 280.784 3.35222 284.169 3.45797C284.254 3.46018 284.406 3.11598 284.916 3.19481C284.948 3.20126 284.895 3.35597 285.237 3.37684C286.363 3.44404 290.658 3.84085 291.153 3.84539C292.973 3.86275 293.292 3.60633 294.399 3.58472C295.857 3.55587 296.068 3.78844 297.455 3.75849C298.105 3.74489 298.697 3.44081 299.719 3.48637C300.324 3.51298 300.383 3.75301 300.863 3.77347C302.568 3.84703 303.821 3.69856 305.334 4.01464C305.731 3.25247 306.453 3.81661 307.202 3.87587C310.244 4.1179 314.036 3.80429 316.646 3.87993C324.789 4.11775 332.01 4.60525 339.965 4.72973C341.257 4.74989 341.57 4.36747 342.924 4.39483C343.533 4.40747 344.161 4.68636 345.157 4.69272C345.958 4.69857 347.106 4.56023 348.106 4.5635C348.372 4.56412 348.395 4.82431 348.786 4.82724C351.754 4.84927 354.653 4.67134 357.651 4.55132C358.762 4.50664 359.448 4.85292 359.262 4.25264C359.686 4.40082 360.098 4.52996 360.497 4.67607C362.026 4.30154 363.273 4.69848 365.341 4.60652C365.564 4.5955 367.126 4.18444 368.011 4.4858C368.074 4.27224 367.937 4.09046 367.963 3.89698C368.838 3.81737 370.182 4.06733 370.772 4.09398C371.362 4.12054 371.758 3.84387 371.936 3.84156C372.611 3.83609 372.453 4.20081 372.504 4.20698C375.652 4.56414 375.321 4.36887 377.224 3.82584C377.701 3.68886 380.932 4.0975 381.587 3.66666C381.616 3.8431 381.435 3.99789 381.383 4.16608C382.354 4.21372 383.332 4.26259 384.307 4.31024C384.101 4.14037 383.853 3.97023 383.665 3.79939C385.654 3.95122 387.31 3.55596 388.937 3.57275C389.868 3.58299 389.753 3.95693 390.3 3.87654C390.407 3.86061 390.227 3.60734 390.544 3.58779C393.132 3.42949 394.266 3.69928 396.857 3.75575C398.072 3.78266 399.136 3.32556 400.877 3.63208C401.036 3.66077 402.745 4.07285 403.802 3.49059C404.137 3.67589 404.433 3.77351 404.684 3.92937C406.824 3.06623 406.231 3.91566 409.121 4.12407C410.617 4.23236 415.649 4.09199 417.277 4.00305C418.247 3.9488 418.23 3.60754 418.403 3.59429C419.437 3.51807 419.436 3.8488 420.393 3.7967C421.349 3.74448 422.558 3.37317 423.54 3.40975C424.292 3.43791 423.698 3.84746 424.809 3.70691C425.039 3.67647 424.383 3.3262 425.554 3.46573C425.739 3.48733 427.61 3.86892 427.994 3.95148C427.008 4.16798 424.149 4.44675 423.075 4.53297C404.571 6.0223 367.305 5.95118 347.55 5.71244C345.715 5.69096 344.517 5.3292 343.321 5.29514C342.125 5.26109 343.135 5.59233 342.05 5.56257C340.964 5.53179 340.174 5.29788 339.159 5.27535C332.315 5.12223 325.419 4.96099 318.63 4.88161C316.869 4.86136 315.461 5.12537 313.859 5.12163C313.236 5.12001 313.217 4.77529 312.774 4.77728C308.001 4.79339 303.584 5.11475 298.837 5.06333C296.865 5.04154 294.736 4.7462 292.783 4.7144C291.174 4.68746 289.505 4.88209 288.058 4.88281C287.272 4.884 286.859 4.62052 286.575 4.59918C285.585 4.52831 285.93 4.84976 285.425 4.84858C284.029 4.84424 283.336 4.45549 282.029 4.48267C281.516 4.49356 281.582 4.74041 280.837 4.77713C279.892 4.82331 280.242 4.59654 279.567 4.58678C279.526 4.58568 279.658 4.76238 279.3 4.76866C276.997 4.80966 274.12 4.942 271.897 4.92471C267.301 4.88976 262.765 4.53931 258.483 4.46275C257.401 4.44409 257.688 4.67472 257.344 4.68501C255.69 4.7335 255.1 4.45706 253.369 4.55181C253.081 4.56733 251.92 4.883 250.813 4.79976C250.215 4.75494 249.537 4.55475 249.028 4.50718C248.518 4.45963 248.436 4.75188 247.824 4.75066C246.709 4.74906 247.034 4.54712 245.439 4.57967C244.796 4.59229 242.651 4.86434 240.997 4.83939C238.295 4.79879 234.946 4.53783 231.76 4.52635C230.667 4.52178 229.263 4.81902 227.568 4.81808C225.497 4.81726 221.681 4.74001 219.558 4.731C218.473 4.72645 218.395 4.41149 218.266 4.39808C217.436 4.30858 217.771 4.66105 217.214 4.64587C216.45 4.62493 215.737 4.36384 215.043 4.34508C214.601 4.33308 214.53 4.59211 214.434 4.5939C210.882 4.67131 207.744 4.63977 204.215 4.65975C185.286 4.76475 166.176 5.05284 147.285 4.85848C145.701 4.84268 145.643 4.51574 144.251 4.5639C142.859 4.61106 141.512 5.31372 140.37 4.53164C140.332 4.68885 140.336 4.80099 140.299 4.94408C137.423 4.7156 134.547 4.93843 131.733 4.96008C129.651 4.97638 127.805 4.94699 125.882 4.92535C124.177 4.90518 124.325 4.63147 122.848 4.98571C115.513 4.74473 108.098 4.78191 100.826 4.39286C99.1191 4.97469 97.485 4.60178 95.1261 4.50955C94.8348 4.4979 95.1468 4.71238 94.2832 4.69222C93.1985 4.66736 92.6378 4.33948 90.8112 4.35329C90.3276 4.3572 86.7446 4.7109 85.4196 4.52227C84.0947 4.33368 82.1751 4.22032 80.7986 4.03966C80.9939 4.18025 81.2414 4.31489 81.4589 4.45351C80.7721 4.4761 80.0817 4.49781 79.395 4.52041C79.2957 4.35179 79.1963 4.18303 79.1007 4.01342C78.7016 4.17279 78.3023 4.3302 77.8995 4.49158C77.0341 3.62455 77.9228 3.90876 75.9917 4.12304C75.0242 4.22967 74.2567 4.07674 73.2634 4.16214C72.9055 4.19354 72.676 4.44772 72.2814 4.47937C71.3142 4.55574 71.8786 4.20649 71.2812 4.20694C70.6794 4.20856 69.8146 4.59161 68.737 4.41768C69.864 3.73382 66.6106 3.95016 66.4543 4.48315C66.0671 4.48323 65.7425 4.46031 65.3147 4.47438C65.7129 3.12824 63.6828 4.07944 62.8776 4.26208C62.0728 4.44445 62.1062 4.08259 61.9179 4.09626C61.3755 4.13434 61.7701 4.28555 61.3901 4.28973C58.8722 4.3141 56.502 4.0876 54.0174 4.06162C53.66 4.05792 53.9765 4.2632 53.5598 4.24214C53.1427 4.221 52.7434 4.01645 52.1268 4.02913C51.9613 4.03232 51.909 4.21187 51.6512 4.21144C46.25 4.19075 41.122 4.02569 35.6138 3.98963C35.1154 3.98645 34.7233 4.305 33.7599 4.29171C32.7966 4.27837 31.3354 3.98666 30.1394 3.96158C29.8219 3.95479 29.7351 4.2207 29.3143 4.21265C27.8821 4.18506 26.6489 3.96552 25.1614 3.92676C22.6477 3.86145 20.0153 4.01764 17.465 3.85445C16.9815 3.82409 17.0593 3.60233 16.362 3.53815C15.1587 3.42745 15.6109 3.75214 15.3671 3.79492C14.5696 3.93311 14.3201 3.50239 13.5487 3.61123C13.4307 3.62806 13.5983 3.88354 13.4925 3.88729C11.8532 3.92782 11.7686 3.32977 10.0253 3.64633C8.47642 3.29896 11.0651 3.18791 11.3313 3.00605C11.9815 2.564 10.2666 2.03874 9.25551 1.86896C8.38476 1.72278 8.39053 1.99896 8.04374 1.99828C6.20902 1.995 3.47667 2.04112 2.08134 1.90683C1.23608 1.82621 2.76028 1.71473 2.32854 1.62297C1.90063 1.53135 1.62298 1.73825 1.18428 1.51043C0.745472 1.28254 -0.149201 0.612826 0.0213703 0.294605ZM154.154 2.14098C151.338 3.22331 143.878 3.09213 139.872 2.97892C136.55 2.88444 133.687 2.03874 134.371 3.25629C137.963 3.27274 140.868 3.15758 144.667 3.20375C145.062 3.2087 147.418 3.32704 148.237 3.34912C148.699 3.36132 148.713 3.56221 149.34 3.56166C149.477 3.56096 150.235 3.30034 150.512 3.30804C151.46 3.33351 154.28 3.74291 154.674 3.73221C155.766 3.7005 155.348 3.38733 155.82 3.33174C157.404 3.1479 157.577 3.61719 159.147 3.4686C159.427 3.44204 160.359 3.0356 161.521 3.09176C161.994 3.11508 162.798 3.32791 163.16 3.31868C165.132 3.26882 167.333 2.99456 169.138 3.04516C170.618 3.08699 170.219 3.40147 171.002 3.44564C171.784 3.48867 172.73 3.12508 173.265 3.10516C174.122 3.07397 175.163 3.28413 175.428 3.28172C180.664 3.23245 185.319 3.00244 190.37 2.92752C186.941 2.77533 183.515 2.635 180.108 2.47781C178.173 2.79996 179.136 2.49591 177.863 2.39108C176.856 2.30808 176.611 2.86084 175.286 2.79645C175.287 2.79645 175.288 2.79646 175.289 2.79646C174.606 2.7626 173.127 2.37595 171.672 2.53287C171.62 2.53886 171.49 2.82572 170.401 2.83326C167.953 2.84972 164.202 2.98827 161.448 2.92038C160.64 2.90034 160.805 2.59911 159.849 2.55957C159.152 2.53096 158.343 2.80794 157.251 2.74302C155.882 2.66017 155.226 2.17893 154.283 2.84321C154.206 2.60507 154.245 2.3731 154.154 2.14098ZM78.4984 2.54407C78.306 2.51728 75.7312 1.76733 76.4934 2.56349C79.9555 2.91641 83.6999 2.75388 87.3434 2.95598C86.101 2.16762 83.9955 2.47228 81.4405 2.52378C81.4394 2.52378 81.4383 2.52377 81.4373 2.52377C81.3166 2.52617 81.8213 2.32207 81.1356 2.35766C80.8033 2.37503 79.5281 2.68663 78.4984 2.54407Z" fill="#83B3E3"/>
</g>
<defs>
<filter id="filter0_n_2169_109" x="0" y="0" width="427.994" height="5.84473" filterUnits="userSpaceOnUse" color-interpolation-filters="sRGB">
<feFlood flood-opacity="0" result="BackgroundImageFix"/>
<feBlend mode="normal" in="SourceGraphic" in2="BackgroundImageFix" result="shape"/>
<feTurbulence type="fractalNoise" baseFrequency="2 2" stitchTiles="stitch" numOctaves="3" result="noise" seed="8719" />
<feColorMatrix in="noise" type="luminanceToAlpha" result="alphaNoise" />
<feComponentTransfer in="alphaNoise" result="coloredNoise1">
<feFuncA type="discrete" tableValues="1 1 1 1 1 1 1 1 1 1 1 1 1 1 1 1 1 1 1 1 1 1 1 1 1 1 1 1 1 1 1 1 1 1 1 1 1 1 1 1 1 1 1 1 1 1 1 1 1 1 1 0 0 0 0 0 0 0 0 0 0 0 0 0 0 0 0 0 0 0 0 0 0 0 0 0 0 0 0 0 0 0 0 0 0 0 0 0 0 0 0 0 0 0 0 0 0 0 0 0 "/>
</feComponentTransfer>
<feComposite operator="in" in2="shape" in="coloredNoise1" result="noise1Clipped" />
<feFlood flood-color="rgba(0, 0, 0, 0.25)" result="color1Flood" />
<feComposite operator="in" in2="noise1Clipped" in="color1Flood" result="color1" />
<feMerge result="effect1_noise_2169_109">
<feMergeNode in="shape" />
<feMergeNode in="color1" />
</feMerge>
</filter>
</defs>
</svg>
