<svg width="505" height="5" viewBox="0 0 505 5" fill="none" xmlns="http://www.w3.org/2000/svg">
<g filter="url(#filter0_n_8063_122)">
<path d="M0.0249367 0.309198C3.37021 0.0430357 6.71107 -0.0707142 10.1522 0.0452137C10.9363 0.0714293 10.8624 0.277146 11.1847 0.310419C11.7772 0.371871 12.7714 0.149892 12.9108 0.149892C13.7758 0.147063 13.4378 0.507128 13.5542 0.520996C14.8522 0.66718 14.4786 0.257053 15.7195 0.217643C17.3355 0.166224 19.4092 0.239587 21.3563 0.259758C22.04 0.267823 21.7356 0.541937 23.2114 0.51886C24.2569 0.502728 27.4639 0.190306 28.9406 0.524048C28.9493 0.65007 28.7628 0.789208 28.6844 0.919262C30.8012 0.39402 31.5589 0.417064 34.56 0.545106C35.0348 0.565272 35.4844 0.349481 36.3207 0.429136C37.1567 0.508857 37.1921 0.841505 38.8733 0.837473C39.4695 0.835244 39.8314 0.600657 40.7457 0.590578C43.3464 0.56135 48.2993 0.85272 50.4337 0.862803C54.6372 0.882955 56.9243 0.482589 60.6573 0.621707C60.9448 0.63179 60.3133 0.88888 60.8403 0.893932C61.3717 0.898973 61.9252 0.55836 62.0559 0.550294C63.467 0.462622 66.4492 0.918928 67.2341 0.863718C69.1421 0.728608 67.2619 0.578507 69.9061 0.513977C72.4238 0.45257 75.9 0.896036 78.3958 0.98274C81.288 1.0835 82.2206 0.439337 84.3986 1.11183C92.0475 1.07251 99.727 1.04845 107.385 1.01417C107.363 1.14823 107.338 1.28235 107.311 1.41641C107.917 1.32365 108.523 1.23075 109.128 1.13899C109.037 1.23879 108.95 1.33868 108.858 1.43747C111.702 1.0524 114.237 0.853756 117.56 0.959546C117.625 0.961552 117.454 1.22885 117.508 1.23574C118.257 1.28615 119.095 1.08053 119.752 1.12892C121.342 1.24488 124.043 1.82772 122.854 1.11489C126.561 1.26207 130.916 1.02106 134.449 1.15914C135.978 1.21861 136.436 1.64107 137.167 1.66544C137.898 1.68961 137.526 1.3266 137.786 1.31264C139.345 1.23199 141.911 1.24696 142.182 1.65323C142.495 1.49095 142.827 1.3267 143.145 1.16341C142.959 1.61387 147.777 1.42768 149.042 1.43869C149.273 1.4407 149.305 1.63816 149.479 1.63614C151.421 1.61085 151.896 1.30136 153.559 1.19851C154.143 1.16221 153.238 1.51018 154.736 1.35995C154.867 1.34675 154.797 1.03413 156.588 1.03615C159.445 1.03916 164.912 0.915173 168.314 1.06941C168.592 1.08151 167.744 1.42229 169.019 1.34286C169.48 1.31463 169.259 1.07265 170.379 1.07063C174.717 1.06056 179.344 1.33876 183.769 1.10787C183.608 1.3811 182.032 1.6876 184.401 1.5162C184.78 1.4879 184.497 1.2439 184.667 1.23482C186.043 1.16431 187.237 1.33861 188.726 1.24489C189.166 1.21666 189.275 1.02506 189.824 0.979689C190.634 0.91217 190.993 1.18536 191.934 1.06941C193.405 0.886927 193.632 0.627952 195.457 1.13594C205.798 1.10368 216.091 0.960652 226.397 1.18447C229.377 1.03928 232.126 0.877065 235.232 0.821603C236.147 0.805471 236.322 1.15225 237.781 1.03737C238.107 1.01216 240.438 0.639974 240.778 1.34072C241.427 1.28027 241.837 1.27822 242.394 1.24093C241.972 1.13808 241.536 1.0341 241.131 0.930249C243.483 1.04216 245.404 0.795127 247.486 0.678166C249.019 0.592516 247.93 0.893016 248.871 0.862803C249.812 0.833564 250.24 0.76595 251.416 1.12587C252.339 0.710642 252.953 1.00186 254.656 1.01295C254.839 1.01396 255.897 0.852933 256.781 0.885081C257.417 0.908264 257.605 1.16722 258.615 1.12709C258.78 1.12104 260.915 0.800195 261.595 0.770942C262.654 0.724561 264.336 1.05653 264.541 1.06056C267.515 1.11898 268.662 0.791256 270.775 1.33065C271.201 1.01009 272.964 0.822474 274.388 0.853647C276.188 0.89297 279.795 1.54842 280.287 0.855784C282.369 1.16428 282.143 0.973881 284.612 0.967786C286.86 0.961737 292.81 1.22668 294.631 1.18843C296.452 1.15113 295.565 0.765906 296.288 0.714483C297.472 0.628995 296.832 0.913223 297.642 0.909191C299.934 0.897088 301.925 0.842768 304.111 0.718756C304.229 0.918317 304.355 1.11888 304.477 1.31844C304.591 1.25194 304.703 1.18536 304.816 1.11885C305.287 1.12087 305.814 1.11677 306.25 1.12282C302.574 0.246775 309.8 1.18762 311.969 1.2098C313.799 1.22794 316.844 0.81246 318.852 0.722723C319.34 0.70065 319.005 0.916291 319.105 0.911327C320.281 0.849822 320.459 0.702557 322.041 0.722723C322.877 0.733826 323.73 1.00387 324.545 1.00899C330.526 1.04528 336.298 0.773951 342.239 0.744696C343.25 0.739656 344.121 1.06931 344.971 1.07643C346.186 1.08651 346.953 0.816602 348.094 0.812447C349.23 0.808415 350.869 1.13098 351.64 1.08162C352.411 1.03322 351.092 0.72064 352.503 0.806344C353.151 0.84573 352.006 1.07851 352.808 1.08559C355.308 1.10777 358.836 0.819487 361.498 1.09871C361.38 1.02916 361.219 0.966566 361.076 0.900035C363.911 0.927265 366.417 1.09465 369.344 1.11885C370.368 1.12785 372.214 0.923491 373.22 0.92445C374.226 0.925458 374.684 1.1472 375.489 1.15334C375.82 1.15636 375.691 0.95765 375.913 0.961683C378.692 1.01416 380.216 1.36789 383.126 1.3276C393.785 1.18039 404.776 1.05327 415.601 0.920178C416.037 0.91491 416.33 0.656037 416.965 0.61774C417.944 0.558458 417.992 0.787294 418.123 0.795357C418.976 0.845718 418.628 0.633915 419.774 0.633915C422.296 0.633916 426.365 0.821561 428.878 0.805428C434.672 0.768121 439.542 0.566375 445.222 0.464537C445.632 0.456471 445.354 0.762942 446.064 0.766975C451.068 0.799198 452.128 0.505768 458.356 0.588442C464.586 0.671125 476.343 0.856773 483.635 0.89912C483.635 0.899832 483.635 0.900544 483.635 0.901256C485.93 0.334657 488.9 0.475583 491.366 0.904003C477.147 2.30148 463.544 1.67956 448.358 1.73502C432.398 1.79251 415.383 2.8079 399.209 2.6698C397.689 2.65669 397.078 2.33399 395.798 2.40154C395.581 2.41297 396.142 2.66166 395.476 2.68689C386.328 3.02567 376.575 2.45884 367.593 2.61609C365.171 2.65843 364.791 2.93574 362.661 3.00733C363.036 2.8763 363.28 2.73928 363.607 2.60724C353.884 2.19787 344.148 2.38037 334.298 2.32189C333.854 2.3188 333.797 2.04754 333.331 2.03746C332.399 2.01633 331.507 2.31478 330.692 2.32494C329.629 2.33805 329.445 2.12222 328.465 2.13634C327.987 2.14356 328.13 2.35098 327.09 2.31579C327.003 2.31276 326.946 2.09515 326.254 2.12321C324.359 2.20085 320.486 2.38339 318.918 2.43786C316.915 2.50742 315.307 2.17961 314.549 2.15831C312.502 2.10085 312.544 2.43652 310.811 2.43664C298.475 2.43866 286.682 2.05671 274.053 2.05974C273.26 2.05989 270.326 2.43361 268.858 2.41863C268.366 2.41259 265.793 2.31387 265.408 2.30572C263.844 2.27446 262.492 2.04853 261.63 2.00114C259.957 1.90846 258.088 2.26127 257.178 2.29656C255.579 2.35904 252.74 2.31266 252.069 2.30358C250.448 2.2814 250.984 1.84498 249.821 1.94682C249.477 1.97724 249.837 2.31182 248.626 2.31182C247.612 2.31068 247.202 2.05871 246.509 2.01335C245.817 1.96826 244.546 2.35791 244.115 2.34814C241.858 2.29369 240.86 2.03836 238.403 2.02525C236.363 2.01521 226.933 2.19383 226.149 2.28557C222.638 2.69554 228.485 2.51161 228.815 2.52545C230.597 2.6051 230.336 2.7624 232.113 2.46197C233.703 3.38856 239.244 1.94584 240.664 3.04487C242.132 2.31286 243.366 2.6819 244.912 2.82911C247.05 3.03256 245.422 2.60599 246.981 2.60296C247.596 2.60217 249.377 2.93468 250.3 2.88831C251.223 2.84184 251.612 2.58686 252.849 2.57275C255.057 2.54658 256.835 2.66558 258.69 2.97102C259.03 2.83594 259.347 2.7008 259.682 2.56573C260.963 2.71092 262.249 2.85522 263.529 2.9994C263.324 2.88143 263.119 2.76244 262.915 2.64447C263.289 2.62733 263.665 2.61116 264.04 2.59503C265.285 2.77247 266.475 2.93676 267.756 3.12025C271.236 2.43786 270.226 3.02848 272.16 3.1172C274.093 3.20583 275.212 2.81079 276.706 2.80866C278.718 2.80563 279.643 2.75633 281.672 2.78455C282.848 2.80068 284.844 3.18187 283.206 2.57794C286.878 2.52954 291.906 2.361 295.19 2.60602C296.16 2.67751 294.867 2.86772 295.032 2.89136C295.855 3.00326 296.549 2.69489 297.398 2.73908C298.809 2.81267 301.557 3.05276 302.668 3.10927C304.267 3.19094 306.781 2.79151 307.038 2.76227C308.474 2.60002 308.859 2.93164 309.32 2.90876C311.947 2.77567 312.527 2.6364 313.354 3.33602C314.034 3.03353 316.883 2.52455 317.571 3.03358C317.589 2.57388 319.954 2.65137 321.409 2.53643C321.679 2.66953 321.953 2.80182 322.224 2.93592C325.26 2.11319 331.306 2.71082 335.3 2.80866C335.4 2.81068 335.579 2.46612 336.181 2.54376C336.219 2.55013 336.157 2.70496 336.56 2.72504C337.889 2.7896 342.958 3.17637 343.541 3.17976C345.689 3.19287 346.064 2.93571 347.371 2.91151C349.092 2.87925 349.34 3.11132 350.977 3.07814C351.744 3.06302 352.441 2.75755 353.647 2.80072C354.362 2.82592 354.432 3.06581 354.998 3.08516C357.01 3.15473 358.488 3.00334 360.274 3.31588C360.74 2.55278 361.594 3.11524 362.478 3.17274C366.068 3.40767 370.541 3.0852 373.621 3.15474C383.23 3.37353 391.751 3.84416 401.138 3.95005C402.662 3.96719 403.03 3.58404 404.628 3.60824C405.347 3.61946 406.088 3.89688 407.264 3.90091C408.209 3.90489 409.563 3.76386 410.743 3.7648C411.057 3.7648 411.084 4.02494 411.546 4.02696C415.048 4.04204 418.468 3.85735 422.005 3.73032C423.316 3.68305 424.126 4.02772 423.904 3.42788C424.405 3.57507 424.892 3.70324 425.363 3.84842C427.166 3.47032 428.639 3.86434 431.078 3.76755C431.341 3.75602 433.183 3.3413 434.228 3.64059C434.302 3.42689 434.14 3.24543 434.17 3.05189C435.202 2.97023 436.788 3.21705 437.486 3.24233C438.182 3.2675 438.648 2.98991 438.857 2.98719C439.654 2.98013 439.468 3.34523 439.529 3.35128C443.245 3.70108 442.853 3.50659 445.097 2.95911C445.659 2.82102 449.473 3.2221 450.244 2.78974C450.279 2.96611 450.066 3.12132 450.005 3.28963C451.151 3.335 452.306 3.38159 453.456 3.42696C453.212 3.25757 452.919 3.08801 452.697 2.91761C455.044 3.0648 456.996 2.66566 458.917 2.67865C460.015 2.68672 459.881 3.06093 460.526 2.97926C460.652 2.96308 460.438 2.71023 460.813 2.68994C463.866 2.52559 465.204 2.79273 468.262 2.84314C469.695 2.86722 470.949 2.40764 473.005 2.71008C473.193 2.7384 475.21 3.14649 476.455 2.56176C476.852 2.74628 477.201 2.84321 477.497 2.99848C480.02 2.13035 479.323 2.98116 482.733 3.18282C484.498 3.28761 490.435 3.13549 492.356 3.04274C493.5 2.98622 493.479 2.645 493.683 2.63135C494.903 2.55271 494.904 2.88345 496.032 2.82911C497.16 2.77466 498.585 2.40053 499.744 2.43481C500.631 2.46121 499.932 2.87215 501.243 2.72901C501.514 2.69802 500.738 2.34929 502.121 2.48608C502.339 2.50725 504.548 2.88446 505.001 2.96613C503.838 3.18493 500.466 3.47038 499.199 3.55911C477.37 5.09167 433.399 5.10762 410.09 4.91504C407.925 4.89785 406.51 4.53889 405.098 4.50762C403.687 4.47636 404.88 4.80524 403.6 4.77801C402.319 4.74978 401.386 4.51772 400.188 4.49755C392.112 4.36043 383.976 4.2153 375.965 4.15178C373.887 4.13564 372.227 4.40294 370.336 4.40294C369.6 4.40278 369.578 4.05811 369.055 4.06114C363.423 4.08839 358.213 4.42008 352.611 4.37975C350.285 4.36256 347.772 4.0722 345.468 4.04496C343.569 4.02178 341.6 4.22031 339.893 4.22441C338.966 4.22743 338.477 3.96492 338.142 3.94425C336.974 3.87569 337.382 4.19633 336.785 4.19633C335.139 4.19525 334.32 3.80812 332.778 3.83835C332.173 3.85045 332.251 4.09715 331.372 4.1356C330.257 4.18399 330.67 3.9564 329.873 3.94822C329.826 3.94721 329.982 4.12361 329.559 4.13072C326.841 4.1771 323.447 4.31616 320.825 4.30406C315.402 4.27986 310.048 3.94001 304.996 3.87345C303.719 3.85732 304.058 4.08728 303.653 4.09837C301.702 4.15073 301.005 3.87566 298.962 3.97446C298.622 3.99065 297.254 4.30903 295.947 4.22838C295.242 4.18496 294.441 3.98636 293.84 3.93998C293.239 3.89361 293.142 4.18606 292.42 4.18626C291.104 4.18727 291.487 3.98457 289.605 4.02085C288.848 4.03497 286.317 4.31203 284.365 4.29094C281.177 4.25666 277.225 4.00352 273.466 3.99949C272.176 3.99747 270.52 4.29799 268.521 4.30101C266.077 4.30502 261.574 4.23669 259.07 4.23265C257.789 4.23063 257.696 3.91585 257.544 3.90275C256.565 3.81518 256.96 4.16687 256.303 4.153C255.402 4.13384 254.56 3.87441 253.741 3.85727C253.219 3.84631 253.136 4.10551 253.022 4.10752C248.832 4.19323 245.129 4.16902 240.965 4.19725C218.632 4.34647 196.084 4.67921 173.794 4.52898C171.926 4.51688 171.855 4.19009 170.213 4.2415C168.571 4.29191 166.984 4.99771 165.634 4.21831C165.59 4.3756 165.595 4.48774 165.551 4.63092C162.158 4.40915 158.764 4.6387 155.445 4.66693C152.989 4.68809 150.81 4.66301 148.541 4.64587C146.529 4.62968 146.703 4.35563 144.962 4.71332C136.306 4.48948 127.557 4.54398 118.976 4.17192C116.963 4.75773 115.034 4.38864 112.251 4.30193C111.907 4.29096 112.276 4.50471 111.257 4.48656C109.977 4.46424 109.314 4.13767 107.159 4.15574C106.589 4.16078 102.362 4.52285 100.798 4.33733C99.2344 4.15183 96.9692 4.04295 95.3445 3.86551C95.5753 4.00564 95.8677 4.1397 96.1247 4.27782C95.3145 4.30202 94.4999 4.32534 93.6897 4.34954C93.5721 4.18115 93.4543 4.01263 93.341 3.84323C92.8706 4.00354 92.3999 4.16188 91.9251 4.32421C90.9016 3.4592 91.9509 3.74133 89.6731 3.96012C88.5319 4.06901 87.6258 3.91788 86.4541 4.00559C86.0318 4.03783 85.7617 4.29254 85.2963 4.32512C84.1552 4.40375 84.8203 4.05318 84.1154 4.05503C83.4053 4.05806 82.386 4.44312 81.114 4.27171C82.4419 3.58522 78.6038 3.80916 78.4209 4.34252C77.9639 4.3435 77.581 4.32133 77.0762 4.33641C77.5423 2.98934 75.1497 3.94529 74.2001 4.1298C73.251 4.31405 73.2894 3.95211 73.0673 3.96622C72.4274 4.00557 72.8934 4.15586 72.4451 4.16093C69.4742 4.19118 66.677 3.97021 63.7453 3.95005C63.3236 3.94718 63.6977 4.15172 63.2059 4.13163C62.7137 4.11147 62.242 3.90786 61.5145 3.92197C61.3193 3.92555 61.258 4.10522 60.954 4.10539C54.581 4.09732 48.5299 3.94425 42.0307 3.92106C41.4426 3.91904 40.9809 4.2385 39.8442 4.22746C38.7075 4.21637 36.9826 3.92807 35.5714 3.9058C35.1967 3.89975 35.0951 4.16585 34.5985 4.1588C32.9086 4.13455 31.4529 3.91789 29.6977 3.8826C26.7316 3.82317 23.6261 3.98551 20.6165 3.82828C20.046 3.79904 20.1371 3.5771 19.3142 3.51455C17.8942 3.40666 18.4286 3.7303 18.141 3.77365C17.2005 3.9137 16.9049 3.48357 15.995 3.5942C15.8559 3.61131 16.0543 3.8664 15.9295 3.8704C13.9954 3.91476 13.8939 3.31691 11.8378 3.63754C10.0094 3.29379 13.0634 3.17669 13.377 2.99421C14.1429 2.55064 12.1182 2.02939 10.9247 1.86198C9.89686 1.71783 9.90443 1.99399 9.49525 1.99412C7.33045 1.99513 4.10667 2.04764 2.45994 1.9166C1.46239 1.83796 3.26049 1.72292 2.75083 1.63217C2.24569 1.54155 1.91866 1.7491 1.40041 1.52231C0.88203 1.29544 -0.175444 0.627817 0.0249367 0.309198ZM181.891 1.79545C178.572 2.88435 169.769 2.7706 165.043 2.66675C161.122 2.58004 157.742 1.74103 158.552 2.95698C162.79 2.96503 166.219 2.84309 170.701 2.88038C171.167 2.88441 173.947 2.99724 174.914 3.01741C175.458 3.02853 175.475 3.22939 176.216 3.22737C176.377 3.22635 177.27 2.96396 177.597 2.97102C178.716 2.99426 182.045 3.39708 182.51 3.38546C183.798 3.35119 183.304 3.039 183.86 2.98231C185.729 2.79477 185.935 3.26365 187.786 3.1114C188.117 3.08418 189.215 2.67557 190.587 2.72901C191.145 2.75123 192.094 2.96218 192.521 2.9521C194.847 2.89763 197.444 2.61823 199.574 2.66461C201.32 2.70298 200.85 3.0184 201.774 3.06074C202.697 3.10194 203.812 2.73614 204.444 2.71497C205.454 2.68178 206.683 2.88951 206.996 2.88648C213.173 2.82497 218.666 2.58408 224.625 2.49737C220.578 2.35319 216.536 2.22086 212.516 2.07164C210.233 2.39831 211.369 2.092 209.867 1.99015C208.678 1.9095 208.39 2.46284 206.827 2.40154C206.828 2.40154 206.829 2.40154 206.831 2.40154C206.025 2.36928 204.278 1.98609 202.562 2.14641C202.501 2.15252 202.348 2.43968 201.063 2.44976C198.175 2.47194 193.75 2.61926 190.5 2.5578C189.546 2.53965 189.741 2.23804 188.612 2.20073C187.789 2.17375 186.836 2.45262 185.548 2.39025C183.931 2.3106 183.156 1.83089 182.045 2.49737C181.954 2.25942 182 2.02735 181.891 1.79545ZM92.6263 2.3753C92.3993 2.34896 89.3592 1.60503 90.2607 2.39941C94.3467 2.74424 98.7643 2.57296 103.064 2.76654C101.596 1.98109 99.1122 2.29066 96.0977 2.34814C96.0965 2.34814 96.0952 2.34814 96.0939 2.34814C95.9515 2.35081 96.5465 2.14553 95.7375 2.18273C95.3455 2.20087 93.8417 2.51545 92.6263 2.3753Z" fill="#F8E2E3"/>
</g>
<defs>
<filter id="filter0_n_8063_122" x="0" y="0" width="505.001" height="5" filterUnits="userSpaceOnUse" color-interpolation-filters="sRGB">
<feFlood flood-opacity="0" result="BackgroundImageFix"/>
<feBlend mode="normal" in="SourceGraphic" in2="BackgroundImageFix" result="shape"/>
<feTurbulence type="fractalNoise" baseFrequency="2 2" stitchTiles="stitch" numOctaves="3" result="noise" seed="8719" />
<feColorMatrix in="noise" type="luminanceToAlpha" result="alphaNoise" />
<feComponentTransfer in="alphaNoise" result="coloredNoise1">
<feFuncA type="discrete" tableValues="1 1 1 1 1 1 1 1 1 1 1 1 1 1 1 1 1 1 1 1 1 1 1 1 1 1 1 1 1 1 1 1 1 1 1 1 1 1 1 1 1 1 1 1 1 1 1 1 1 1 1 0 0 0 0 0 0 0 0 0 0 0 0 0 0 0 0 0 0 0 0 0 0 0 0 0 0 0 0 0 0 0 0 0 0 0 0 0 0 0 0 0 0 0 0 0 0 0 0 0 "/>
</feComponentTransfer>
<feComposite operator="in" in2="shape" in="coloredNoise1" result="noise1Clipped" />
<feFlood flood-color="rgba(0, 0, 0, 0.25)" result="color1Flood" />
<feComposite operator="in" in2="noise1Clipped" in="color1Flood" result="color1" />
<feMerge result="effect1_noise_8063_122">
<feMergeNode in="shape" />
<feMergeNode in="color1" />
</feMerge>
</filter>
</defs>
</svg>
